<svg id="Layer_1" data-name="Layer 1" xmlns="http://www.w3.org/2000/svg" xmlns:xlink="http://www.w3.org/1999/xlink" viewBox="0 0 128 128"><defs><style>.cls-1{fill:url(#linear-gradient);}</style><linearGradient id="linear-gradient" x1="83.66" y1="83.68" x2="44.31" y2="44.33" gradientUnits="userSpaceOnUse"><stop offset="0" stop-color="#0fff6b"/><stop offset="1" stop-color="#0ffbff"/></linearGradient></defs><g id="_3" data-name="3"><path class="cls-1" d="M101.58,63.7A4.22,4.22,0,0,1,100.33,67a4.17,4.17,0,0,1-3,1.25h-29a.06.06,0,0,0,0,.06V97a4.44,4.44,0,0,1-3.51,4.43,4.29,4.29,0,0,1-5.07-4.21V68.32a.06.06,0,0,0-.05-.06h-29A4.26,4.26,0,0,1,26.41,64a4.28,4.28,0,0,1,4.29-4.28h29a.06.06,0,0,0,.05-.06V31a4.44,4.44,0,0,1,3.51-4.43A4.31,4.31,0,0,1,67,27.72a4.25,4.25,0,0,1,1.26,3V59.66a.06.06,0,0,0,0,.06H97.08A4.43,4.43,0,0,1,101.58,63.7Z"/></g></svg>